<svg xmlns="http://www.w3.org/2000/svg" width="60.585" height="44.466" viewBox="0 0 60.585 44.466">
  <g id="Icona_Info" data-name="Icona Info" transform="translate(0 -68.053)">
    <g id="Raggruppa_81" data-name="Raggruppa 81" transform="translate(0 68.053)">
      <g id="Raggruppa_80" data-name="Raggruppa 80" transform="translate(0 0)">
        <path id="Tracciato_31" data-name="Tracciato 31" d="M90.287,68.053A22.233,22.233,0,1,0,112.52,90.286,22.3,22.3,0,0,0,90.287,68.053Zm0,42.445A20.212,20.212,0,1,1,110.5,90.286,20.271,20.271,0,0,1,90.287,110.5Z" transform="translate(-59.994 -68.053)" fill="#2c3036"/>
        <path id="Tracciato_32" data-name="Tracciato 32" d="M10.283,74.038a1,1,0,1,0-1.415-1.415,30.314,30.314,0,0,0,0,42.849.977.977,0,0,0,1.415,0,.977.977,0,0,0,0-1.415A28.363,28.363,0,0,1,10.283,74.038Z" transform="translate(0 -71.815)" fill="#2c3036"/>
        <path id="Tracciato_33" data-name="Tracciato 33" d="M423.9,72.623a1,1,0,1,0-1.415,1.415,28.363,28.363,0,0,1,0,40.019.977.977,0,0,0,0,1.415.977.977,0,0,0,1.415,0A30.314,30.314,0,0,0,423.9,72.623Z" transform="translate(-372.187 -71.815)" fill="#2c3036"/>
        <path id="Tracciato_34" data-name="Tracciato 34" d="M211.213,211.213h-3.032V197.065a.955.955,0,0,0-1.011-1.011h-9.1a.955.955,0,0,0-1.011,1.011v4.042a.955.955,0,0,0,1.011,1.011H200.1v9.1h-3.032a.955.955,0,0,0-1.011,1.011v4.042a.955.955,0,0,0,1.011,1.011h14.148a.955.955,0,0,0,1.011-1.011v-4.042A.955.955,0,0,0,211.213,211.213Zm-1.011,4.042H198.075v-2.021h3.032a.955.955,0,0,0,1.011-1.011V201.107a.955.955,0,0,0-1.011-1.011h-2.021v-2.021h7.074v14.148a.955.955,0,0,0,1.011,1.011H210.2v2.021Z" transform="translate(-172.836 -180.895)" fill="#2c3036"/>
        <path id="Tracciato_35" data-name="Tracciato 35" d="M225.7,118.806a4.042,4.042,0,1,0-4.042-4.042,4.054,4.054,0,0,0,4.042,4.042Zm0-6.064a2.021,2.021,0,1,1-2.021,2.021A2.027,2.027,0,0,1,225.7,112.742Z" transform="translate(-195.404 -105.668)" fill="#2c3036"/>
      </g>
    </g>
  </g>
</svg>
