<svg xmlns="http://www.w3.org/2000/svg" width="107.067" height="107.067" viewBox="0 0 107.067 107.067">
  <g id="Icona_Azienda" data-name="Icona Azienda" transform="translate(-177.8 -568.467)">
    <g id="Raggruppa_13" data-name="Raggruppa 13" transform="translate(215.001 604.307)">
      <rect id="Rettangolo_38" data-name="Rettangolo 38" width="4.083" height="4.083" fill="#2c3036"/>
    </g>
    <g id="Raggruppa_15" data-name="Raggruppa 15" transform="translate(215.001 611.112)">
      <rect id="Rettangolo_39" data-name="Rettangolo 39" width="4.083" height="4.083" fill="#2c3036"/>
    </g>
    <g id="Raggruppa_17" data-name="Raggruppa 17" transform="translate(215.001 617.917)">
      <rect id="Rettangolo_40" data-name="Rettangolo 40" width="4.083" height="4.083" fill="#2c3036"/>
    </g>
    <g id="Raggruppa_19" data-name="Raggruppa 19" transform="translate(215.001 626.083)">
      <rect id="Rettangolo_41" data-name="Rettangolo 41" width="4.083" height="2.722" fill="#2c3036"/>
    </g>
    <g id="Raggruppa_21" data-name="Raggruppa 21" transform="translate(221.806 604.307)">
      <rect id="Rettangolo_42" data-name="Rettangolo 42" width="4.083" height="4.083" fill="#2c3036"/>
    </g>
    <g id="Raggruppa_23" data-name="Raggruppa 23" transform="translate(221.806 611.112)">
      <rect id="Rettangolo_43" data-name="Rettangolo 43" width="4.083" height="4.083" fill="#2c3036"/>
    </g>
    <g id="Raggruppa_25" data-name="Raggruppa 25" transform="translate(221.806 617.917)">
      <rect id="Rettangolo_44" data-name="Rettangolo 44" width="4.083" height="4.083" fill="#2c3036"/>
    </g>
    <g id="Raggruppa_27" data-name="Raggruppa 27" transform="translate(221.806 626.083)">
      <rect id="Rettangolo_45" data-name="Rettangolo 45" width="4.083" height="2.722" fill="#2c3036"/>
    </g>
    <g id="Raggruppa_29" data-name="Raggruppa 29" transform="translate(229.972 604.307)">
      <rect id="Rettangolo_46" data-name="Rettangolo 46" width="2.722" height="4.083" fill="#2c3036"/>
    </g>
    <g id="Raggruppa_31" data-name="Raggruppa 31" transform="translate(229.972 611.112)">
      <rect id="Rettangolo_47" data-name="Rettangolo 47" width="2.722" height="4.083" fill="#2c3036"/>
    </g>
    <g id="Raggruppa_33" data-name="Raggruppa 33" transform="translate(229.972 617.917)">
      <rect id="Rettangolo_48" data-name="Rettangolo 48" width="2.722" height="4.083" fill="#2c3036"/>
    </g>
    <g id="Raggruppa_35" data-name="Raggruppa 35" transform="translate(229.972 626.083)">
      <rect id="Rettangolo_49" data-name="Rettangolo 49" width="2.722" height="2.722" fill="#2c3036"/>
    </g>
    <g id="Raggruppa_37" data-name="Raggruppa 37" transform="translate(236.777 604.307)">
      <rect id="Rettangolo_50" data-name="Rettangolo 50" width="4.083" height="4.083" fill="#2c3036"/>
    </g>
    <g id="Raggruppa_39" data-name="Raggruppa 39" transform="translate(221.806 597.502)">
      <rect id="Rettangolo_51" data-name="Rettangolo 51" width="4.083" height="2.722" fill="#2c3036"/>
    </g>
    <g id="Raggruppa_41" data-name="Raggruppa 41" transform="translate(229.972 597.502)">
      <rect id="Rettangolo_52" data-name="Rettangolo 52" width="2.722" height="2.722" fill="#2c3036"/>
    </g>
    <g id="Raggruppa_43" data-name="Raggruppa 43" transform="translate(236.777 597.502)">
      <rect id="Rettangolo_53" data-name="Rettangolo 53" width="4.083" height="2.722" fill="#2c3036"/>
    </g>
    <g id="Raggruppa_45" data-name="Raggruppa 45" transform="translate(236.777 611.112)">
      <rect id="Rettangolo_54" data-name="Rettangolo 54" width="4.083" height="4.083" fill="#2c3036"/>
    </g>
    <g id="Raggruppa_47" data-name="Raggruppa 47" transform="translate(236.777 617.917)">
      <rect id="Rettangolo_55" data-name="Rettangolo 55" width="4.083" height="4.083" fill="#2c3036"/>
    </g>
    <g id="Raggruppa_49" data-name="Raggruppa 49" transform="translate(236.777 626.083)">
      <rect id="Rettangolo_56" data-name="Rettangolo 56" width="4.083" height="2.722" fill="#2c3036"/>
    </g>
    <g id="Raggruppa_51" data-name="Raggruppa 51" transform="translate(243.583 604.307)">
      <rect id="Rettangolo_57" data-name="Rettangolo 57" width="4.083" height="4.083" fill="#2c3036"/>
    </g>
    <g id="Raggruppa_53" data-name="Raggruppa 53" transform="translate(243.583 611.112)">
      <rect id="Rettangolo_58" data-name="Rettangolo 58" width="4.083" height="4.083" fill="#2c3036"/>
    </g>
    <g id="Raggruppa_55" data-name="Raggruppa 55" transform="translate(243.583 617.917)">
      <rect id="Rettangolo_59" data-name="Rettangolo 59" width="4.083" height="4.083" fill="#2c3036"/>
    </g>
    <g id="Raggruppa_57" data-name="Raggruppa 57" transform="translate(243.583 626.083)">
      <rect id="Rettangolo_60" data-name="Rettangolo 60" width="4.083" height="2.722" fill="#2c3036"/>
    </g>
    <g id="Raggruppa_59" data-name="Raggruppa 59" transform="translate(177.8 568.467)" style="mix-blend-mode: darken;isolation: isolate">
      <path id="Tracciato_26" data-name="Tracciato 26" d="M105.284,26.767H78.516V1.784A1.783,1.783,0,0,0,76.733,0h-46.4a1.783,1.783,0,0,0-1.784,1.782V26.767H1.784A1.783,1.783,0,0,0,0,28.549V92.791a1.783,1.783,0,0,0,1.782,1.784H5.515a10.708,10.708,0,0,0-.161,1.784v8.922a1.783,1.783,0,0,0,1.782,1.784H99.929a1.783,1.783,0,0,0,1.784-1.782V96.36a10.661,10.661,0,0,0-.161-1.784h3.73a1.783,1.783,0,0,0,1.784-1.782V28.551A1.783,1.783,0,0,0,105.284,26.767ZM76.731,76.731a3.569,3.569,0,1,1-3.569-3.569A3.569,3.569,0,0,1,76.731,76.731ZM33.9,73.162a3.569,3.569,0,1,1-3.569,3.569A3.569,3.569,0,0,1,33.9,73.162ZM23.2,103.5H8.922V96.36a7.138,7.138,0,0,1,14.276,0ZM12.491,82.084a3.569,3.569,0,1,1,3.569,3.569A3.569,3.569,0,0,1,12.491,82.084Zm10.977,6.563a10.757,10.757,0,0,0-2.245-1.662,7.138,7.138,0,1,0-10.327,0A10.776,10.776,0,0,0,6.8,91.006H3.569V30.336H28.551V72.059a7.041,7.041,0,0,0,.19,9.574A10.737,10.737,0,0,0,23.468,88.648ZM41.042,103.5H26.767V91.007a7.138,7.138,0,1,1,14.276,0Zm21.413,0H44.611V91.007a8.922,8.922,0,1,1,17.844,0ZM48.18,73.162a5.353,5.353,0,1,1,5.353,5.353A5.353,5.353,0,0,1,48.18,73.162ZM64.4,84.871a12.569,12.569,0,0,0-5.12-4.943,8.923,8.923,0,1,0-11.5,0,12.569,12.569,0,0,0-5.12,4.943,10.778,10.778,0,0,0-3.6-3.239A7.087,7.087,0,0,0,32.12,69.847V3.569H74.947V69.847A7.106,7.106,0,0,0,68,81.633,10.778,10.778,0,0,0,64.4,84.871ZM80.3,96.36V103.5H66.024V91.007a7.138,7.138,0,1,1,14.276,0ZM98.144,103.5H83.869V96.36a7.138,7.138,0,0,1,14.276,0ZM87.438,82.084a3.569,3.569,0,1,1,3.569,3.569A3.569,3.569,0,0,1,87.438,82.084Zm16.06,8.922h-3.233a10.776,10.776,0,0,0-4.095-4.02,7.138,7.138,0,1,0-10.327,0A10.751,10.751,0,0,0,83.6,88.648a10.736,10.736,0,0,0-5.273-7.015,7.041,7.041,0,0,0,.19-9.574V30.336H103.5V91.007Z" transform="translate(0 0)" fill="#2c3036"/>
    </g>
    <g id="Raggruppa_61" data-name="Raggruppa 61" transform="translate(261.276 609.751)">
      <rect id="Rettangolo_61" data-name="Rettangolo 61" width="4.083" height="28.581" fill="#2c3036"/>
    </g>
    <g id="Raggruppa_63" data-name="Raggruppa 63" transform="translate(272.164 609.751)">
      <rect id="Rettangolo_62" data-name="Rettangolo 62" width="4.083" height="28.581" fill="#2c3036"/>
    </g>
    <g id="Raggruppa_65" data-name="Raggruppa 65" transform="translate(186.42 609.751)">
      <rect id="Rettangolo_63" data-name="Rettangolo 63" width="4.083" height="28.581" fill="#2c3036"/>
    </g>
    <g id="Raggruppa_67" data-name="Raggruppa 67" transform="translate(197.308 609.751)">
      <rect id="Rettangolo_64" data-name="Rettangolo 64" width="4.083" height="28.581" fill="#2c3036"/>
    </g>
    <g id="Raggruppa_69" data-name="Raggruppa 69" transform="translate(218.842 575.604)">
      <path id="Tracciato_27" data-name="Tracciato 27" d="M207.2,32H185.784A1.783,1.783,0,0,0,184,33.782V48.06a1.783,1.783,0,0,0,1.782,1.784H207.2a1.783,1.783,0,0,0,1.784-1.782V33.784A1.783,1.783,0,0,0,207.2,32Zm-1.786,14.276H187.569V35.569h17.844Z" transform="translate(-184 -32)" fill="#2c3036"/>
    </g>
  </g>
</svg>
