<svg xmlns="http://www.w3.org/2000/svg" width="106.743" height="84.249" viewBox="0 0 106.743 84.249">
  <g id="Icona_persona_Fisica" data-name="Icona persona Fisica" transform="translate(0 -68.066)">
    <g id="Raggruppa_95" data-name="Raggruppa 95" transform="translate(80.014 104.015)">
      <g id="Raggruppa_94" data-name="Raggruppa 94" transform="translate(0 0)">
        <path id="Tracciato_36" data-name="Tracciato 36" d="M405.969,230.424c-3.905-1.952-11.227-1.975-11.536-1.975a1.681,1.681,0,1,0,0,3.362c1.889,0,7.375.291,10.033,1.62a1.681,1.681,0,0,0,1.5-3.007Z" transform="translate(-392.751 -228.449)" fill="#2c3036"/>
      </g>
    </g>
    <g id="Raggruppa_97" data-name="Raggruppa 97" transform="translate(0 68.066)">
      <g id="Raggruppa_96" data-name="Raggruppa 96" transform="translate(0 0)">
        <path id="Tracciato_37" data-name="Tracciato 37" d="M101.971,129.924l-6.458-1.984a.7.7,0,0,1-.473-.675v-2.317a11.974,11.974,0,0,0,1.5-1.318,12.838,12.838,0,0,0,3.521-8.947v-3.2l.624-1.342a11.388,11.388,0,0,0,1.047-4.771V96.709a1.626,1.626,0,0,0-1.564-1.681H85.117c-5.471,0-9.923,4.786-9.923,10.668v.1a9.469,9.469,0,0,0,.871,3.967l.8,1.722v2.746a13.45,13.45,0,0,0,5.016,10.605v2.429c0,.375,0,.53-1.291.926l-3.151.968L68.325,125.6a1.756,1.756,0,0,0-.426-1.287l-2.913-3.29V115.5c.308-.273.611-.553.906-.849A20.454,20.454,0,0,0,71.673,100.3V95.893a20.667,20.667,0,0,0,1.672-8.172V69.747a1.626,1.626,0,0,0-1.564-1.681H48.376c-8.237,0-14.938,7.2-14.938,16.061v3.6a20.667,20.667,0,0,0,1.672,8.172v3.795A21.21,21.21,0,0,0,41.8,115.366v5.653l-2.913,3.29a1.756,1.756,0,0,0-.426,1.287l-9.62,3.761a8.017,8.017,0,0,0-1.933,1.089l-1.511-.812c4.5-2.1,5.922-5.064,5.99-5.211a1.794,1.794,0,0,0,0-1.5c-1.127-2.424-1.264-6.867-1.373-10.436-.036-1.188-.071-2.311-.137-3.311-.533-8.063-6.235-14.144-13.263-14.144S3.88,101.108,3.348,109.172c-.066,1-.1,2.123-.137,3.311-.11,3.569-.246,8.012-1.373,10.436a1.794,1.794,0,0,0,0,1.5c.068.147,1.49,3.1,6,5.208l-4.2,2.256A7.109,7.109,0,0,0,0,138.213v12.42a1.626,1.626,0,0,0,1.564,1.681,1.626,1.626,0,0,0,1.564-1.681v-12.42a3.729,3.729,0,0,1,1.908-3.32l5.225-2.809,1.818,1.857a6.248,6.248,0,0,0,9.064,0l1.817-1.857,1.7.916a9.348,9.348,0,0,0-1.258,4.694v12.939a1.568,1.568,0,1,0,3.127,0V137.694a5.521,5.521,0,0,1,3.373-5.177l10.143-3.965,4.222,6.81a3.2,3.2,0,0,0,2.373,1.532,3.06,3.06,0,0,0,.323.017,3.113,3.113,0,0,0,2.284-1.019l2.576-2.77v17.511a1.568,1.568,0,1,0,3.127,0V133.122l2.576,2.77a3.112,3.112,0,0,0,2.284,1.019,3.057,3.057,0,0,0,.322-.017,3.2,3.2,0,0,0,2.373-1.532l4.223-6.81,10.143,3.965a5.522,5.522,0,0,1,3.373,5.177v12.939a1.568,1.568,0,1,0,3.127,0V137.695a9.248,9.248,0,0,0-2.313-6.151l.386-.119a8.191,8.191,0,0,0,1.455-.565l3.992,4.292v15.481a1.568,1.568,0,1,0,3.127,0V135.153l3.964-4.262a3.572,3.572,0,0,0,.665.284l6.458,1.984a3.7,3.7,0,0,1,2.5,3.569v13.907a1.568,1.568,0,1,0,3.127,0V136.727A7.051,7.051,0,0,0,101.971,129.924Zm-91.94-2.969a11.239,11.239,0,0,1-5.018-3.464,19.7,19.7,0,0,0,.891-4.025,12.4,12.4,0,0,0,4.127,5.474Zm8.957,4.55a3.278,3.278,0,0,1-4.756,0l-1.454-1.486a3.689,3.689,0,0,0,.38-1.642v-1.792a10.853,10.853,0,0,0,6.9,0v1.79a3.689,3.689,0,0,0,.38,1.642Zm-2.378-7.717c-4.669,0-8.468-4.084-8.468-9.1A1.626,1.626,0,0,0,6.58,113a1.449,1.449,0,0,0-.257.025c0-.145.009-.289.014-.433.035-1.156.068-2.248.13-3.184a12.948,12.948,0,0,1,3.161-7.838,9.251,9.251,0,0,1,13.965,0,12.948,12.948,0,0,1,3.161,7.838c.062.936.1,2.028.131,3.184l.009.3a14.173,14.173,0,0,0-7.723-6.067,18.35,18.35,0,0,0-5.947-1.013,1.516,1.516,0,0,0-1.082.514L9.32,109.473a1.772,1.772,0,0,0,.04,2.377,1.488,1.488,0,0,0,2.211-.043l2.348-2.617c2.022.106,8.526.919,11.055,6.908A8.661,8.661,0,0,1,16.611,123.787Zm6.578,3.173v-2a12.3,12.3,0,0,0,4.128-5.48,19.671,19.671,0,0,0,.89,4.016A11.294,11.294,0,0,1,23.189,126.961ZM38.236,99.688V95.517a1.787,1.787,0,0,0-.156-.731,17.133,17.133,0,0,1-1.516-7.065V84.127c0-7,5.3-12.7,11.811-12.7H70.218V87.722A17.133,17.133,0,0,1,68.7,94.787a1.787,1.787,0,0,0-.156.731V100.3a16.729,16.729,0,0,1-4.793,11.89,15.907,15.907,0,0,1-1.2,1.093l-.027.021a14.31,14.31,0,0,1-10.146,3.254C44.449,116.01,38.236,108.6,38.236,99.688Zm8.8,33.826a.1.1,0,0,1-.087.033.1.1,0,0,1-.079-.051l-4.863-7.842,1.565-1.768,7.377,5.421Zm6.351-6.487L44.924,120.8v-3.138a16.7,16.7,0,0,0,7.253,2.251q.618.043,1.23.043a17.1,17.1,0,0,0,8.451-2.227V120.8Zm6.518,6.47a.1.1,0,0,1-.079.051.093.093,0,0,1-.087-.033l-3.913-4.207,7.377-5.422,1.565,1.768Zm28.552-1.418-3.548-3.815a4.946,4.946,0,0,0,.1-1v-.709a10.278,10.278,0,0,0,3.1.588c.12,0,.24.006.36.006a10.869,10.869,0,0,0,3.447-.561v.677a4.3,4.3,0,0,0,.113.98Zm5.9-10.861a8.091,8.091,0,0,1-6.158,2.566c-4.525-.146-8.206-4.431-8.206-9.551v-3.143a1.783,1.783,0,0,0-.165-.752l-.966-2.077a5.881,5.881,0,0,1-.541-2.464v-.1a7.073,7.073,0,0,1,6.8-7.306H98.6v6.982a7.8,7.8,0,0,1-.717,3.268l-.789,1.7a1.784,1.784,0,0,0-.165.752v3.595A9.376,9.376,0,0,1,94.357,121.217Z" transform="translate(0 -68.066)" fill="#2c3036"/>
      </g>
    </g>
    <g id="Raggruppa_99" data-name="Raggruppa 99" transform="translate(96.191 138.167)">
      <g id="Raggruppa_98" data-name="Raggruppa 98" transform="translate(0 0)">
        <path id="Tracciato_38" data-name="Tracciato 38" d="M466.6,380.814a1.681,1.681,0,0,0-1.681,1.681V393.28a1.681,1.681,0,1,0,3.362,0V382.5A1.681,1.681,0,0,0,466.6,380.814Z" transform="translate(-464.923 -380.814)" fill="#2c3036"/>
      </g>
    </g>
    <g id="Raggruppa_101" data-name="Raggruppa 101" transform="translate(7.19 140.389)">
      <g id="Raggruppa_100" data-name="Raggruppa 100">
        <path id="Tracciato_39" data-name="Tracciato 39" d="M33.758,390.728a1.681,1.681,0,0,0-1.681,1.681v8.563a1.681,1.681,0,1,0,3.362,0v-8.563A1.681,1.681,0,0,0,33.758,390.728Z" transform="translate(-32.077 -390.728)" fill="#2c3036"/>
      </g>
    </g>
    <g id="Raggruppa_103" data-name="Raggruppa 103" transform="translate(39.127 83.338)">
      <g id="Raggruppa_102" data-name="Raggruppa 102" transform="translate(0 0)">
        <path id="Tracciato_40" data-name="Tracciato 40" d="M220.494,141.195c-6.358-6.358-19.661-5.143-25.086-4.325a3.451,3.451,0,0,0-2.949,3.438v3.873a1.681,1.681,0,1,0,3.362,0v-3.873a.111.111,0,0,1,.088-.114,53.111,53.111,0,0,1,10.921-.533c5.242.349,9.039,1.665,11.285,3.911a1.681,1.681,0,0,0,2.377-2.377Z" transform="translate(-192.46 -136.203)" fill="#2c3036"/>
      </g>
    </g>
    <g id="Raggruppa_105" data-name="Raggruppa 105" transform="translate(33.361 141.762)">
      <g id="Raggruppa_104" data-name="Raggruppa 104">
        <path id="Tracciato_41" data-name="Tracciato 41" d="M162.065,396.853a1.681,1.681,0,0,0-1.681,1.681v7.19a1.681,1.681,0,1,0,3.362,0v-7.19A1.681,1.681,0,0,0,162.065,396.853Z" transform="translate(-160.384 -396.853)" fill="#2c3036"/>
      </g>
    </g>
    <g id="Raggruppa_107" data-name="Raggruppa 107" transform="translate(70.059 141.762)">
      <g id="Raggruppa_106" data-name="Raggruppa 106">
        <path id="Tracciato_42" data-name="Tracciato 42" d="M338.487,396.853a1.681,1.681,0,0,0-1.681,1.681v7.19a1.681,1.681,0,1,0,3.362,0v-7.19A1.681,1.681,0,0,0,338.487,396.853Z" transform="translate(-336.806 -396.853)" fill="#2c3036"/>
      </g>
    </g>
  </g>
</svg>
