<svg xmlns="http://www.w3.org/2000/svg" xmlns:xlink="http://www.w3.org/1999/xlink" width="22" height="22" viewBox="0 0 22 22">
  <defs>
    <clipPath id="clip-path">
      <rect id="Mask" width="22" height="22" rx="11" transform="translate(-0.45 -0.45)" fill="#f5f5f5"/>
    </clipPath>
    <filter id="Pill_shadow_dark" x="-7.827" y="-10.209" width="42.917" height="48.549" filterUnits="userSpaceOnUse">
      <feOffset dx="3" dy="3" input="SourceAlpha"/>
      <feGaussianBlur stdDeviation="3" result="blur"/>
      <feFlood flood-opacity="0.102"/>
      <feComposite operator="in" in2="blur"/>
      <feComposite in="SourceGraphic"/>
    </filter>
    <filter id="Pill_shadow_white" x="-13.827" y="-16.209" width="42.917" height="48.549" filterUnits="userSpaceOnUse">
      <feOffset dx="-3" dy="-3" input="SourceAlpha"/>
      <feGaussianBlur stdDeviation="3" result="blur-2"/>
      <feFlood flood-color="#fff"/>
      <feComposite operator="in" in2="blur-2"/>
      <feComposite in="SourceGraphic"/>
    </filter>
    <clipPath id="clip-path-2">
      <rect id="Rettangolo_133" data-name="Rettangolo 133" width="8.146" height="12.699" transform="translate(0 0)" fill="#fff"/>
    </clipPath>
  </defs>
  <g id="Raggruppa_173" data-name="Raggruppa 173" transform="translate(-173 -843)">
    <g id="Raggruppa_169" data-name="Raggruppa 169" transform="translate(173.45 843.45)">
      <g id="Toggle_switch" data-name="Toggle switch" clip-path="url(#clip-path)">
        <rect id="Toggle_background" data-name="Toggle background" width="22" height="22" rx="11" transform="translate(-0.45 -0.45)" fill="#f5f5f5"/>
        <g id="Neuo_effect" data-name="Neuo effect" transform="translate(-2.277 -4.659)">
          <g transform="matrix(1, 0, 0, 1, 1.83, 4.21)" filter="url(#Pill_shadow_dark)">
            <path id="Pill_shadow_dark-2" data-name="Pill shadow dark" d="M12.459,30.549A12.459,12.459,0,0,1,0,18.09V12.459a12.458,12.458,0,0,1,21.268-8.81,12.378,12.378,0,0,1,3.649,8.81V18.09A12.458,12.458,0,0,1,12.459,30.549Zm.273-25.457a10.183,10.183,0,1,0,0,20.366h.021a10.183,10.183,0,0,0,0-20.366Z" transform="translate(-1.83 -4.21)" fill="#f5f5f5"/>
          </g>
          <g transform="matrix(1, 0, 0, 1, 1.83, 4.21)" filter="url(#Pill_shadow_white)">
            <path id="Pill_shadow_white-2" data-name="Pill shadow white" d="M12.459,30.549A12.459,12.459,0,0,1,0,18.09V12.459a12.458,12.458,0,0,1,21.268-8.81,12.378,12.378,0,0,1,3.649,8.81V18.09A12.458,12.458,0,0,1,12.459,30.549Zm.273-25.457a10.183,10.183,0,1,0,0,20.366h.021a10.183,10.183,0,0,0,0-20.366Z" transform="translate(-1.83 -4.21)" fill="#f5f5f5"/>
          </g>
        </g>
      </g>
      <path id="Mask-2" data-name="Mask" d="M10.183,0A10.183,10.183,0,1,1,0,10.183,10.183,10.183,0,0,1,10.183,0Z" transform="translate(0.301 0.433)" fill="#3b2ad5"/>
    </g>
    <g id="Raggruppa_170" data-name="Raggruppa 170" transform="translate(180.152 847.956)">
      <g id="Raggruppa_166" data-name="Raggruppa 166" transform="translate(0 0)" clip-path="url(#clip-path-2)">
        <path id="Tracciato_55" data-name="Tracciato 55" d="M75.574,256.147a.907.907,0,1,1,.907-.907.907.907,0,0,1-.907.907" transform="translate(-71.507 -243.449)" fill="#fff"/>
        <path id="Tracciato_56" data-name="Tracciato 56" d="M5.514,7.835a.911.911,0,0,0-.529.824v.407a.907.907,0,0,1-1.813,0V8.659A2.732,2.732,0,0,1,4.754,6.188,2.963,2.963,0,0,0,6.345,4.08a2.267,2.267,0,0,0-4.533,0A.907.907,0,0,1,0,4.08a4.08,4.08,0,1,1,8.16,0A4.724,4.724,0,0,1,5.514,7.835" transform="translate(-0.012 0.077)" fill="#fff"/>
      </g>
    </g>
  </g>
</svg>
