<svg xmlns="http://www.w3.org/2000/svg" width="11.857" height="21.267" viewBox="0 0 11.857 21.267">
  <g id="Punto_Interrogativo" data-name="Punto Interrogativo" transform="translate(-93.044 -34.648)">
    <path id="Tracciato_29" data-name="Tracciato 29" d="M144.369,250.192h0a1.95,1.95,0,1,0,1.95,1.95A1.953,1.953,0,0,0,144.369,250.192Zm0,2.692a.742.742,0,1,1,.742-.742A.743.743,0,0,1,144.369,252.884Z" transform="translate(-45.397 -198.178)" fill="#2ad590"/>
    <path id="Tracciato_30" data-name="Tracciato 30" d="M104.893,40.263a5.928,5.928,0,0,0-11.849.313,1.813,1.813,0,1,0,3.626,0,2.333,2.333,0,0,1,.022-.324,2.3,2.3,0,1,1,2.281,2.626,1.815,1.815,0,0,0-1.813,1.813V49a1.813,1.813,0,1,0,3.626,0V46.219a5.926,5.926,0,0,0,4.108-5.955Zm-2.5,3.562a4.721,4.721,0,0,1-2.352,1.346.6.6,0,0,0-.466.588V49a.6.6,0,0,1-1.209,0v-4.3a.6.6,0,0,1,.6-.6,3.513,3.513,0,0,0,3.507-3.7,3.512,3.512,0,0,0-6.984-.3c-.065.465.007,1.1-.638,1.1-.7,0-.625-.788-.559-1.262a4.72,4.72,0,0,1,9.388.407A4.682,4.682,0,0,1,102.4,43.825Z" transform="translate(0 0)" fill="#2ad590"/>
  </g>
</svg>
